<?xml version="1.0"?>
<svg width="120" height="120" xmlns="http://www.w3.org/2000/svg">
 <!-- Created with Method Draw - http://github.com/duopixel/Method-Draw/ -->

 <g>
  <title>background</title>
  <rect fill="none" id="canvas_background" height="122" width="122" y="-1" x="-1"/>
  <g display="none" overflow="visible" y="0" x="0" height="100%" width="100%" id="canvasGrid">
   <rect fill="url(#gridpattern)" stroke-width="0" y="1" x="1" height="400" width="580"/>
  </g>
 </g>
 <g>
  <title>Layer 1</title>
  <!-- Created with Method Draw - http://github.com/duopixel/Method-Draw/ -->
  <rect transform="matrix(1.4428843240471565,0,0,1.4428843240471565,0,0) " fill="#fab23a" stroke="#000" stroke-width="0" x="0" y="6.691019" width="4.99993" height="68.999034" id="svg_40"/>
  <rect transform="matrix(1.4428843240471565,0,0,1.4428843240471565,0,0) " fill="#fab23a" stroke="#000" stroke-width="0" x="78.103344" y="6.691019" width="4.99993" height="68.999034" id="svg_39"/>
  <rect transform="matrix(1.605174996006838,0,0,1.605174996006838,-7.93478359922131,-9.336293591242548) " fill="#fab23a" stroke="#000" stroke-width="0" stroke-opacity="null" fill-opacity="null" x="43.404203" y="35.897853" width="26.249633" height="25.249647" id="svg_35"/>
  <rect transform="matrix(1.4428843240471565,0,0,1.4428843240471565,0,0) " fill="#fab23a" stroke-width="0" stroke-opacity="null" fill-opacity="null" x="13.687137" y="43.243068" width="19.197495" height="18.466162" id="svg_32" stroke="#000"/>
  <rect transform="matrix(1.4428843240471565,0,0,1.6542073513312394,0,-13.040580636934465) " fill="#fab23a" stroke-width="0" stroke-opacity="null" fill-opacity="null" x="13.45612" y="42.609043" width="19.197495" height="18.466162" id="svg_31" stroke="#000"/>
  <rect transform="matrix(1.4428843240471565,0,0,1.6974673509682656,0,-5.1990558014560975) " fill="#fab23a" stroke="#000" stroke-width="0" stroke-opacity="null" x="18.999732" y="4.941044" width="36.249493" height="15.249787" id="svg_28"/>
  <rect transform="matrix(1.4428843240471565,0,0,1.4428843240471565,0,0) " fill="#808080" stroke="#000" stroke-width="0" stroke-opacity="null" x="62.499123" y="35.690613" width="4.499937" height="3.999944" id="svg_27"/>
  <rect transform="matrix(1.4428843240471565,0,0,1.4428843240471565,0,0) " fill="#808080" stroke="#000" stroke-width="0" stroke-opacity="null" x="47.249337" y="35.690613" width="4.499937" height="3.999944" id="svg_26"/>
  <rect transform="matrix(1.4428843240471565,0,0,1.4428843240471565,0,0) " fill="#808080" stroke="#000" stroke-width="0" stroke-opacity="null" x="47.249337" y="55.690333" width="4.499937" height="3.999944" id="svg_25"/>
  <rect transform="matrix(1.4428843240471565,0,0,1.4428843240471565,0,0) " fill="#808080" stroke-width="0" stroke-opacity="null" x="26.670672" y="42.690516" width="3.315746" height="2.94733" id="svg_24" stroke="#000"/>
  <rect transform="matrix(1.4428843240471565,0,0,1.4428843240471565,0,0) " fill="#808080" stroke-width="0" stroke-opacity="null" x="16.276103" y="42.690516" width="3.315746" height="2.94733" id="svg_23" stroke="#000"/>
  <rect stroke="#000" id="svg_49" height="7.732428" width="98.665777" y="33.166908" x="10.66711" fill-opacity="null" stroke-opacity="null" stroke-width="0" fill="#fab23a"/>
  <rect stroke="#000" id="svg_50" height="7.732428" width="98.665777" y="92.833037" x="10.66711" fill-opacity="null" stroke-opacity="null" stroke-width="0" fill="#fab23a"/>
 </g>
</svg>
