<?xml version="1.0"?>
<svg width="83" height="111" xmlns="http://www.w3.org/2000/svg">
 <!-- Created with Method Draw - http://github.com/duopixel/Method-Draw/ -->
 <g>
  <title>background</title>
  <rect fill="none" id="canvas_background" height="113" width="85" y="-1" x="-1"/>
  <g display="none" overflow="visible" y="0" x="0" height="100%" width="100%" id="canvasGrid">
   <rect fill="url(#gridpattern)" stroke-width="0" y="0" x="0" height="100%" width="100%"/>
  </g>
 </g>
 <g>
  <title>Layer 1</title>
  <rect id="svg_2" height="68.999034" width="4.99993" y="17.249757" x="0.000009" stroke-width="0" stroke="#000" fill="#fab23a"/>
  <rect id="svg_3" height="68.999034" width="4.99993" y="17.249757" x="78.103353" stroke-width="0" stroke="#000" fill="#fab23a"/>
  <rect transform="rotate(90 41.564483642578125,34.499462127685554) " id="svg_4" height="68.999034" width="4.99993" y="-0.000001" x="39.064512" stroke-width="0" stroke="#000" fill="#fab23a"/>
  <rect transform="rotate(90 41.56448364257812,76.7838821411133) " id="svg_5" height="68.999034" width="4.99993" y="42.284271" x="39.064512" stroke-width="0" stroke="#000" fill="#fab23a"/>
  <g id="svg_10">
   <rect id="svg_6" height="25.249647" width="26.249633" y="47.249337" x="44.249388" fill-opacity="null" stroke-opacity="null" stroke-width="0" stroke="#000" fill="#fab23a"/>
   <rect id="svg_7" height="25.249647" width="26.249633" y="47.249337" x="44.249388" fill-opacity="null" stroke-opacity="null" stroke-width="0" stroke="#000" fill="#fab23a"/>
   <rect id="svg_9" height="3.749948" width="33.499531" y="43.49939" x="40.749437" fill-opacity="null" stroke-opacity="null" stroke-width="0" stroke="#000" fill="#fab23a"/>
  </g>
  <g stroke="null" id="svg_14">
   <rect stroke="#000" id="svg_11" height="18.466162" width="19.197495" y="54.032823" x="13.687146" fill-opacity="null" stroke-opacity="null" stroke-width="0" fill="#fab23a"/>
   <rect stroke="#000" id="svg_12" height="18.466162" width="19.197495" y="54.032823" x="13.687146" fill-opacity="null" stroke-opacity="null" stroke-width="0" fill="#fab23a"/>
   <rect stroke="#000" id="svg_13" height="2.742499" width="24.499661" y="51.290324" x="11.12748" fill-opacity="null" stroke-opacity="null" stroke-width="0" fill="#fab23a"/>
  </g>
  <rect id="svg_15" height="15.249787" width="36.249493" y="15.499782" x="18.999741" stroke-opacity="null" stroke-width="0" stroke="#000" fill="#fab23a"/>
  <rect id="svg_16" height="3.999944" width="4.499937" y="46.249351" x="62.499132" stroke-opacity="null" stroke-width="0" stroke="#000" fill="#808080"/>
  <rect id="svg_17" height="3.999944" width="4.499937" y="46.249351" x="47.249346" stroke-opacity="null" stroke-width="0" stroke="#000" fill="#808080"/>
  <rect id="svg_18" height="3.999944" width="4.499937" y="66.249071" x="47.249346" stroke-opacity="null" stroke-width="0" stroke="#000" fill="#808080"/>
  <rect stroke="#000" id="svg_19" height="2.94733" width="3.315746" y="53.249254" x="26.670681" stroke-opacity="null" stroke-width="0" fill="#808080"/>
  <rect stroke="#000" id="svg_20" height="2.94733" width="3.315746" y="53.249254" x="16.276112" stroke-opacity="null" stroke-width="0" fill="#808080"/>
 </g>
</svg>
